<?xml version="1.0" encoding="UTF-8" standalone="no"?>

<svg
   xmlns:dc="http://purl.org/dc/elements/1.1/"
   xmlns:cc="http://creativecommons.org/ns#"
   xmlns:rdf="http://www.w3.org/1999/02/22-rdf-syntax-ns#"
   xmlns:svg="http://www.w3.org/2000/svg"
   xmlns="http://www.w3.org/2000/svg"
   xmlns:sodipodi="http://sodipodi.sourceforge.net/DTD/sodipodi-0.dtd"
   xmlns:inkscape="http://www.inkscape.org/namespaces/inkscape"
   width="11.288889mm"
   height="8.8698406mm"
   viewBox="0 0 40 31.428568"
   id="sl7-catalog-teaser"
   version="1.1"
   inkscape:version="0.91 r13725">
  <defs
     id="defs4" />
  <sodipodi:namedview
     id="base"
     pagecolor="#ffffff"
     bordercolor="#666666"
     borderopacity="1.0"
     inkscape:pageopacity="0.0"
     inkscape:pageshadow="2"
     inkscape:zoom="9.2582784"
     inkscape:cx="27.958602"
     inkscape:cy="27.566209"
     inkscape:document-units="px"
     inkscape:current-layer="layer1"
     showgrid="false"
     inkscape:snap-to-guides="true"
     inkscape:window-width="1680"
     inkscape:window-height="991"
     inkscape:window-x="0"
     inkscape:window-y="30"
     inkscape:window-maximized="1"
     fit-margin-top="0"
     fit-margin-left="0"
     fit-margin-right="0"
     fit-margin-bottom="0"
     inkscape:showpageshadow="true" />
  <metadata
     id="metadata7">
    <rdf:RDF>
      <cc:Work
         rdf:about="">
        <dc:format>image/svg+xml</dc:format>
        <dc:type
           rdf:resource="http://purl.org/dc/dcmitype/StillImage" />
        <dc:title></dc:title>
      </cc:Work>
    </rdf:RDF>
  </metadata>
  <g
     inkscape:label="Layer 1"
     inkscape:groupmode="layer"
     id="layer1"
     transform="translate(-94.618027,-486.03687)">
    <g
       style="font-style:normal;font-weight:normal;font-size:40px;line-height:125%;font-family:sans-serif;letter-spacing:0px;word-spacing:0px;fill:#777;fill-opacity:1;stroke:none;stroke-width:1px;stroke-linecap:butt;stroke-linejoin:miter;stroke-opacity:1"
       id="flowRoot3430"
       transform="translate(13.393418,20.19814)">
      <path
         d="m 121.22461,492.98158 c 0,-0.78125 -0.64732,-1.42857 -1.42857,-1.42857 l -37.142859,0 c -0.78125,0 -1.428572,0.64732 -1.428572,1.42857 l 0,2.85715 c 0,0.78125 0.647322,1.42857 1.428572,1.42857 l 37.142859,0 c 0.78125,0 1.42857,-0.64732 1.42857,-1.42857 l 0,-2.85715 z m 0,-8.57142 c 0,-0.78125 -0.64732,-1.42858 -1.42857,-1.42858 l -37.142859,0 c -0.78125,0 -1.428572,0.64733 -1.428572,1.42858 l 0,2.85714 c 0,0.78125 0.647322,1.42857 1.428572,1.42857 l 37.142859,0 c 0.78125,0 1.42857,-0.64732 1.42857,-1.42857 l 0,-2.85714 z m 0,-8.57143 c 0,-0.78125 -0.64732,-1.42857 -1.42857,-1.42857 l -37.142859,0 c -0.78125,0 -1.428572,0.64732 -1.428572,1.42857 l 0,2.85714 c 0,0.78125 0.647322,1.42857 1.428572,1.42857 l 37.142859,0 c 0.78125,0 1.42857,-0.64732 1.42857,-1.42857 l 0,-2.85714 z m 0,-8.57143 c 0,-0.78125 -0.64732,-1.42857 -1.42857,-1.42857 l -37.142859,0 c -0.78125,0 -1.428572,0.64732 -1.428572,1.42857 l 0,2.85714 c 0,0.78125 0.647322,1.42857 1.428572,1.42857 l 37.142859,0 c 0.78125,0 1.42857,-0.64732 1.42857,-1.42857 l 0,-2.85714 z"
         id="path3439"
         inkscape:connector-curvature="0" />
    </g>
  </g>
</svg>
