<?xml version="1.0" encoding="UTF-8" standalone="no"?>

<svg
   xmlns:dc="http://purl.org/dc/elements/1.1/"
   xmlns:cc="http://creativecommons.org/ns#"
   xmlns:rdf="http://www.w3.org/1999/02/22-rdf-syntax-ns#"
   xmlns:svg="http://www.w3.org/2000/svg"
   xmlns="http://www.w3.org/2000/svg"
   xmlns:sodipodi="http://sodipodi.sourceforge.net/DTD/sodipodi-0.dtd"
   xmlns:inkscape="http://www.inkscape.org/namespaces/inkscape"
   width="9.6761894mm"
   height="11.288889mm"
   viewBox="0 0 34.285711 40"
   id="svg2"
   version="1.1"
   inkscape:version="0.91 r13725">
  <defs
     id="defs4" />
  <sodipodi:namedview
     id="base"
     pagecolor="#ffffff"
     bordercolor="#666666"
     borderopacity="1.0"
     inkscape:pageopacity="0.0"
     inkscape:pageshadow="2"
     inkscape:zoom="7.9195959"
     inkscape:cx="85.882206"
     inkscape:cy="2.6685968"
     inkscape:document-units="px"
     inkscape:current-layer="layer1"
     showgrid="false"
     fit-margin-top="0"
     fit-margin-left="0"
     fit-margin-right="0"
     fit-margin-bottom="0"
     inkscape:window-width="1680"
     inkscape:window-height="991"
     inkscape:window-x="0"
     inkscape:window-y="30"
     inkscape:window-maximized="1" />
  <metadata
     id="metadata7">
    <rdf:RDF>
      <cc:Work
         rdf:about="">
        <dc:format>image/svg+xml</dc:format>
        <dc:type
           rdf:resource="http://purl.org/dc/dcmitype/StillImage" />
        <dc:title></dc:title>
      </cc:Work>
    </rdf:RDF>
  </metadata>
  <g
     inkscape:label="Layer 1"
     inkscape:groupmode="layer"
     id="layer1"
     transform="translate(-188.57227,-412.36244)">
    <g
       style="font-style:normal;font-weight:normal;font-size:40px;line-height:125%;font-family:sans-serif;letter-spacing:0px;word-spacing:0px;fill:#777;fill-opacity:1;stroke:none;stroke-width:1px;stroke-linecap:butt;stroke-linejoin:miter;stroke-opacity:1"
       id="flowRoot3336">
      <path
         d="m 221.34012,422.98744 -9.10714,-9.10714 c -0.22321,-0.22321 -0.49107,-0.42411 -0.80357,-0.625 l 0,10.53572 10.53571,0 c -0.20089,-0.3125 -0.40178,-0.58036 -0.625,-0.80358 z m -10.625,3.66072 c -1.18303,0 -2.14285,-0.95982 -2.14285,-2.14286 l 0,-12.14286 -17.85715,0 c -1.18303,0 -2.14285,0.95983 -2.14285,2.14286 l 0,35.71429 c 0,1.18303 0.95982,2.14285 2.14285,2.14285 l 30,0 c 1.18304,0 2.14286,-0.95982 2.14286,-2.14285 l 0,-23.57143 -12.14286,0 z m 3.57143,16.42857 c 0,0.40179 -0.3125,0.71429 -0.71428,0.71429 l -15.71429,0 c -0.40179,0 -0.71429,-0.3125 -0.71429,-0.71429 l 0,-1.42857 c 0,-0.40179 0.3125,-0.71429 0.71429,-0.71429 l 15.71429,0 c 0.40178,0 0.71428,0.3125 0.71428,0.71429 l 0,1.42857 z m 0,-5.71429 c 0,0.40179 -0.3125,0.71429 -0.71428,0.71429 l -15.71429,0 c -0.40179,0 -0.71429,-0.3125 -0.71429,-0.71429 l 0,-1.42857 c 0,-0.40178 0.3125,-0.71428 0.71429,-0.71428 l 15.71429,0 c 0.40178,0 0.71428,0.3125 0.71428,0.71428 l 0,1.42857 z m 0,-5.71428 c 0,0.40178 -0.3125,0.71428 -0.71428,0.71428 l -15.71429,0 c -0.40179,0 -0.71429,-0.3125 -0.71429,-0.71428 l 0,-1.42857 c 0,-0.40179 0.3125,-0.71429 0.71429,-0.71429 l 15.71429,0 c 0.40178,0 0.71428,0.3125 0.71428,0.71429 l 0,1.42857 z"
         id="path3345"
         inkscape:connector-curvature="0" />
    </g>
  </g>
</svg>
