<?xml version="1.0" encoding="UTF-8" standalone="no"?>

<svg
   xmlns:dc="http://purl.org/dc/elements/1.1/"
   xmlns:cc="http://creativecommons.org/ns#"
   xmlns:rdf="http://www.w3.org/1999/02/22-rdf-syntax-ns#"
   xmlns:svg="http://www.w3.org/2000/svg"
   xmlns="http://www.w3.org/2000/svg"
   xmlns:sodipodi="http://sodipodi.sourceforge.net/DTD/sodipodi-0.dtd"
   xmlns:inkscape="http://www.inkscape.org/namespaces/inkscape"
   width="11.288889mm"
   height="8.8698406mm"
   viewBox="0 0 40 31.428569"
   id="sl7-catalog-teaser"
   version="1.1"
   inkscape:version="0.91 r13725">
  <defs
     id="defs4" />
  <sodipodi:namedview
     id="base"
     pagecolor="#ffffff"
     bordercolor="#666666"
     borderopacity="1.0"
     inkscape:pageopacity="0.0"
     inkscape:pageshadow="2"
     inkscape:zoom="6.5465912"
     inkscape:cx="41.42398"
     inkscape:cy="-0.42954472"
     inkscape:document-units="px"
     inkscape:current-layer="layer1"
     showgrid="false"
     inkscape:snap-to-guides="true"
     inkscape:window-width="1680"
     inkscape:window-height="991"
     inkscape:window-x="0"
     inkscape:window-y="30"
     inkscape:window-maximized="1"
     fit-margin-top="0"
     fit-margin-left="0"
     fit-margin-right="0"
     fit-margin-bottom="0" />
  <metadata
     id="metadata7">
    <rdf:RDF>
      <cc:Work
         rdf:about="">
        <dc:format>image/svg+xml</dc:format>
        <dc:type
           rdf:resource="http://purl.org/dc/dcmitype/StillImage" />
        <dc:title></dc:title>
      </cc:Work>
    </rdf:RDF>
  </metadata>
  <g
     inkscape:label="Layer 1"
     inkscape:groupmode="layer"
     id="layer1"
     transform="translate(-165.73437,-515.87193)">
    <g
       clip-path="none"
       style="font-style:normal;font-weight:normal;font-size:40px;line-height:125%;font-family:sans-serif;letter-spacing:0px;word-spacing:0px;fill:#777;fill-opacity:1;stroke:none;stroke-width:1px;stroke-linecap:butt;stroke-linejoin:miter;stroke-opacity:1"
       id="flowRoot3374">
      <path
         d="m 177.16295,540.87193 c 0,-1.18303 -0.95983,-2.14286 -2.14286,-2.14286 l -7.14286,0 c -1.18303,0 -2.14286,0.95983 -2.14286,2.14286 l 0,4.28572 c 0,1.18303 0.95983,2.14285 2.14286,2.14285 l 7.14286,0 c 1.18303,0 2.14286,-0.95982 2.14286,-2.14285 l 0,-4.28572 z m 0,-11.42857 c 0,-1.18304 -0.95983,-2.14286 -2.14286,-2.14286 l -7.14286,0 c -1.18303,0 -2.14286,0.95982 -2.14286,2.14286 l 0,4.28571 c 0,1.18304 0.95983,2.14286 2.14286,2.14286 l 7.14286,0 c 1.18303,0 2.14286,-0.95982 2.14286,-2.14286 l 0,-4.28571 z m 14.28571,11.42857 c 0,-1.18303 -0.95982,-2.14286 -2.14286,-2.14286 l -7.14285,0 c -1.18304,0 -2.14286,0.95983 -2.14286,2.14286 l 0,4.28572 c 0,1.18303 0.95982,2.14285 2.14286,2.14285 l 7.14285,0 c 1.18304,0 2.14286,-0.95982 2.14286,-2.14285 l 0,-4.28572 z m -14.28571,-22.85714 c 0,-1.18304 -0.95983,-2.14286 -2.14286,-2.14286 l -7.14286,0 c -1.18303,0 -2.14286,0.95982 -2.14286,2.14286 l 0,4.28571 c 0,1.18304 0.95983,2.14286 2.14286,2.14286 l 7.14286,0 c 1.18303,0 2.14286,-0.95982 2.14286,-2.14286 l 0,-4.28571 z m 14.28571,11.42857 c 0,-1.18304 -0.95982,-2.14286 -2.14286,-2.14286 l -7.14285,0 c -1.18304,0 -2.14286,0.95982 -2.14286,2.14286 l 0,4.28571 c 0,1.18304 0.95982,2.14286 2.14286,2.14286 l 7.14285,0 c 1.18304,0 2.14286,-0.95982 2.14286,-2.14286 l 0,-4.28571 z m 14.28571,11.42857 c 0,-1.18303 -0.95982,-2.14286 -2.14285,-2.14286 l -7.14286,0 c -1.18304,0 -2.14286,0.95983 -2.14286,2.14286 l 0,4.28572 c 0,1.18303 0.95982,2.14285 2.14286,2.14285 l 7.14286,0 c 1.18303,0 2.14285,-0.95982 2.14285,-2.14285 l 0,-4.28572 z m -14.28571,-22.85714 c 0,-1.18304 -0.95982,-2.14286 -2.14286,-2.14286 l -7.14285,0 c -1.18304,0 -2.14286,0.95982 -2.14286,2.14286 l 0,4.28571 c 0,1.18304 0.95982,2.14286 2.14286,2.14286 l 7.14285,0 c 1.18304,0 2.14286,-0.95982 2.14286,-2.14286 l 0,-4.28571 z m 14.28571,11.42857 c 0,-1.18304 -0.95982,-2.14286 -2.14285,-2.14286 l -7.14286,0 c -1.18304,0 -2.14286,0.95982 -2.14286,2.14286 l 0,4.28571 c 0,1.18304 0.95982,2.14286 2.14286,2.14286 l 7.14286,0 c 1.18303,0 2.14285,-0.95982 2.14285,-2.14286 l 0,-4.28571 z m 0,-11.42857 c 0,-1.18304 -0.95982,-2.14286 -2.14285,-2.14286 l -7.14286,0 c -1.18304,0 -2.14286,0.95982 -2.14286,2.14286 l 0,4.28571 c 0,1.18304 0.95982,2.14286 2.14286,2.14286 l 7.14286,0 c 1.18303,0 2.14285,-0.95982 2.14285,-2.14286 l 0,-4.28571 z"
         id="path3386"
         inkscape:connector-curvature="0" />
    </g>
    <g
       id="g3388"
       style="font-style:normal;font-weight:normal;font-size:40px;line-height:125%;font-family:sans-serif;letter-spacing:0px;word-spacing:0px;fill:#777;fill-opacity:1;stroke:none;stroke-width:1px;stroke-linecap:butt;stroke-linejoin:miter;stroke-opacity:1"
       clip-path="none">
      <path
         id="path3390"
         d="m 177.16295,540.87193 c 0,-1.18303 -0.95983,-2.14286 -2.14286,-2.14286 l -7.14286,0 c -1.18303,0 -2.14286,0.95983 -2.14286,2.14286 l 0,4.28572 c 0,1.18303 0.95983,2.14285 2.14286,2.14285 l 7.14286,0 c 1.18303,0 2.14286,-0.95982 2.14286,-2.14285 l 0,-4.28572 z m 0,-11.42857 c 0,-1.18304 -0.95983,-2.14286 -2.14286,-2.14286 l -7.14286,0 c -1.18303,0 -2.14286,0.95982 -2.14286,2.14286 l 0,4.28571 c 0,1.18304 0.95983,2.14286 2.14286,2.14286 l 7.14286,0 c 1.18303,0 2.14286,-0.95982 2.14286,-2.14286 l 0,-4.28571 z m 14.28571,11.42857 c 0,-1.18303 -0.95982,-2.14286 -2.14286,-2.14286 l -7.14285,0 c -1.18304,0 -2.14286,0.95983 -2.14286,2.14286 l 0,4.28572 c 0,1.18303 0.95982,2.14285 2.14286,2.14285 l 7.14285,0 c 1.18304,0 2.14286,-0.95982 2.14286,-2.14285 l 0,-4.28572 z m -14.28571,-22.85714 c 0,-1.18304 -0.95983,-2.14286 -2.14286,-2.14286 l -7.14286,0 c -1.18303,0 -2.14286,0.95982 -2.14286,2.14286 l 0,4.28571 c 0,1.18304 0.95983,2.14286 2.14286,2.14286 l 7.14286,0 c 1.18303,0 2.14286,-0.95982 2.14286,-2.14286 l 0,-4.28571 z m 14.28571,11.42857 c 0,-1.18304 -0.95982,-2.14286 -2.14286,-2.14286 l -7.14285,0 c -1.18304,0 -2.14286,0.95982 -2.14286,2.14286 l 0,4.28571 c 0,1.18304 0.95982,2.14286 2.14286,2.14286 l 7.14285,0 c 1.18304,0 2.14286,-0.95982 2.14286,-2.14286 l 0,-4.28571 z m 14.28571,11.42857 c 0,-1.18303 -0.95982,-2.14286 -2.14285,-2.14286 l -7.14286,0 c -1.18304,0 -2.14286,0.95983 -2.14286,2.14286 l 0,4.28572 c 0,1.18303 0.95982,2.14285 2.14286,2.14285 l 7.14286,0 c 1.18303,0 2.14285,-0.95982 2.14285,-2.14285 l 0,-4.28572 z m -14.28571,-22.85714 c 0,-1.18304 -0.95982,-2.14286 -2.14286,-2.14286 l -7.14285,0 c -1.18304,0 -2.14286,0.95982 -2.14286,2.14286 l 0,4.28571 c 0,1.18304 0.95982,2.14286 2.14286,2.14286 l 7.14285,0 c 1.18304,0 2.14286,-0.95982 2.14286,-2.14286 l 0,-4.28571 z m 14.28571,11.42857 c 0,-1.18304 -0.95982,-2.14286 -2.14285,-2.14286 l -7.14286,0 c -1.18304,0 -2.14286,0.95982 -2.14286,2.14286 l 0,4.28571 c 0,1.18304 0.95982,2.14286 2.14286,2.14286 l 7.14286,0 c 1.18303,0 2.14285,-0.95982 2.14285,-2.14286 l 0,-4.28571 z m 0,-11.42857 c 0,-1.18304 -0.95982,-2.14286 -2.14285,-2.14286 l -7.14286,0 c -1.18304,0 -2.14286,0.95982 -2.14286,2.14286 l 0,4.28571 c 0,1.18304 0.95982,2.14286 2.14286,2.14286 l 7.14286,0 c 1.18303,0 2.14285,-0.95982 2.14285,-2.14286 l 0,-4.28571 z"
         inkscape:connector-curvature="0" />
    </g>
  </g>
</svg>
